<svg width="14" height="14" viewBox="0 0 14 14" fill="none" xmlns="http://www.w3.org/2000/svg">
  <path d="M9.99245 12.3725C8.15495 12.3725 6.66162 10.8792 6.66162 9.04167C6.66162 7.42583 7.83995 6.04917 9.42662 5.775V3.675L8.79079 4.31083C8.68579 4.41583 8.53995 4.48 8.38829 4.48C8.23662 4.48 8.09662 4.42167 7.98579 4.31083C7.76412 4.08917 7.76412 3.7275 7.98579 3.50583L9.60745 1.9075C9.68912 1.81417 9.84079 1.75 9.99245 1.75C10.15 1.75 10.2958 1.81417 10.4066 1.93083L11.9991 3.50583C12.1041 3.61083 12.1625 3.75667 12.1625 3.90833C12.1625 4.06 12.1041 4.2 11.9991 4.31083C11.8941 4.41583 11.7483 4.48 11.5966 4.48C11.445 4.48 11.305 4.42167 11.1941 4.31083L10.5641 3.675V5.775C12.1508 6.04917 13.3291 7.42583 13.3291 9.04167C13.3233 10.8792 11.83 12.3725 9.99245 12.3725ZM9.99245 6.8425C8.78495 6.8425 7.79912 7.82833 7.79912 9.03583C7.79912 10.2433 8.78495 11.2292 9.99245 11.2292C11.2 11.2292 12.1858 10.2433 12.1858 9.03583C12.1858 7.82833 11.2058 6.8425 9.99245 6.8425Z" fill="#000000"/>
  <path d="M3.94982 12.3783C3.63482 12.3783 3.38398 12.1217 3.38398 11.8125V10.9725H2.73065C2.41565 10.9725 2.16482 10.7158 2.16482 10.4067C2.16482 10.0917 2.42148 9.84083 2.73065 9.84083H3.37815V8.35917C1.77398 8.09667 0.583984 6.71417 0.583984 5.08083C0.583984 3.24333 2.07732 1.75 3.91482 1.75C5.75232 1.75 7.24565 3.24333 7.24565 5.08083C7.24565 6.67917 6.08482 8.05583 4.51565 8.34167V9.82917H5.09898C5.41398 9.82917 5.66482 10.0858 5.66482 10.395C5.66482 10.71 5.40815 10.9608 5.09898 10.9608H4.51565V11.8008C4.51565 12.1275 4.25898 12.3783 3.94982 12.3783ZM3.91482 2.8875C2.70732 2.8875 1.72148 3.87333 1.72148 5.08083C1.72148 6.28833 2.70732 7.27417 3.91482 7.27417C5.12232 7.27417 6.10815 6.28833 6.10815 5.08083C6.10815 3.87333 5.12815 2.8875 3.91482 2.8875Z" fill="#000000"/>
  <path d="M7.07046 5.08085C7.07046 3.34252 5.65296 1.92502 3.91462 1.92502C2.17629 1.92502 0.758789 3.34252 0.758789 5.08085C0.758789 6.69669 1.98379 8.02085 3.55296 8.20169V10.0042H2.73046C2.51462 10.01 2.33379 10.185 2.33379 10.4009C2.33379 10.6167 2.50879 10.7975 2.73046 10.7975H3.55296V11.8125C3.55296 12.0284 3.72796 12.2092 3.94962 12.2092C4.16546 12.2092 4.34629 12.0342 4.34629 11.8125V10.7975H5.10462C5.32046 10.7975 5.50129 10.6225 5.50129 10.4009C5.50129 10.1792 5.32629 10.0042 5.10462 10.0042H4.34629V8.19585C5.88046 7.98585 7.07046 6.67919 7.07046 5.08085ZM1.54629 5.08085C1.54629 3.77419 2.60796 2.71252 3.91462 2.71252C5.22129 2.71252 6.28296 3.77419 6.28296 5.08085C6.28296 6.38752 5.22129 7.44919 3.91462 7.44919C2.60796 7.44919 1.54629 6.38752 1.54629 5.08085Z" fill="#000000"/>
</svg>
